<?xml version="1.0" encoding="UTF-8"?>
<svg width="1080px" height="308px" viewBox="0 0 1080 308" version="1.1" xmlns="http://www.w3.org/2000/svg" xmlns:xlink="http://www.w3.org/1999/xlink">
    <title>Mountains</title>
    <g id="Page-1" stroke="none" stroke-width="1" fill="none" fill-rule="evenodd">
        <g id="Desktop-HD" transform="translate(-84.000000, -205.000000)">
            <g id="Mountains" transform="translate(84.990479, 205.684208)">
                <path d="M-5.68434189e-14,306.315792 C92.4441292,112.315792 179.665972,15.3157916 261.665527,15.3157916 C384.664861,15.3157916 390.943996,208.534217 494.681519,226.035945 C598.419041,243.537674 637.281031,97.3157916 747.701904,97.3157916 C821.31582,97.3157916 885.929427,166.982458 941.542725,306.315792 L-5.68434189e-14,306.315792 Z" id="Path-4" fill="#66BB6A"></path>
                <path d="M290.009521,306 C382.143573,135.454493 459.804328,50.1817402 522.991788,50.1817402 C617.772977,50.1817402 598.193628,322.183079 706.210487,259.746503 C814.227346,197.309928 841.52185,0 942.443368,0 C1009.72438,0 1054.9131,102 1078.00952,306 L290.009521,306 Z" id="Path-5" fill-opacity="0.740355698" fill="#69BB66"></path>
            </g>
        </g>
    </g>
</svg>