<?xml version="1.0" encoding="UTF-8"?>
<svg width="249px" height="28px" viewBox="0 0 249 28" version="1.1" xmlns="http://www.w3.org/2000/svg" xmlns:xlink="http://www.w3.org/1999/xlink">
    <title>Train</title>
    <g id="Page-1" stroke="none" stroke-width="1" fill="none" fill-rule="evenodd">
        <g id="Desktop-HD" transform="translate(-94.000000, -441.000000)">
            <g id="Train-Group" transform="translate(83.000000, 441.000000)">
                <g id="Train" transform="translate(11.000000, 0.000000)">
                    <path d="M13.6,0 L124.2,0 L124.2,0 L124.2,27.2 L13.6,27.2 C6.0889274,27.2 9.19841101e-16,21.1110726 0,13.6 C-9.19841101e-16,6.0889274 6.0889274,3.15611849e-15 13.6,0 Z" id="Rectangle" fill="#ECECEC"></path>
                    <path d="M137.8,0 L248.4,0 L248.4,0 L248.4,27.2 L137.8,27.2 C130.288927,27.2 124.2,21.1110726 124.2,13.6 C124.2,6.0889274 130.288927,3.15611849e-15 137.8,0 Z" id="Rectangle" fill="#ECECEC" transform="translate(186.300000, 13.600000) scale(-1, 1) translate(-186.300000, -13.600000) "></path>
                    <g id="Windows" transform="translate(0.000000, 1.400000)">
                        <rect id="Rectangle" fill="#FF0000" x="13" y="19.4" width="224.4" height="4.4" rx="2.2"></rect>
                        <rect id="Rectangle" fill="#FF0000" x="13" y="13" width="224.4" height="4.4" rx="2.2"></rect>
                        <rect id="Rectangle" fill="#E2FFFE" x="22" y="0.2" width="38.6" height="12" rx="6"></rect>
                        <rect id="Rectangle" fill="#E2FFFE" x="63.2" y="0.2" width="38.6" height="12" rx="6"></rect>
                        <rect id="Rectangle" fill="#E2FFFE" x="104.4" y="0.2" width="38.6" height="12" rx="6"></rect>
                        <rect id="Rectangle" fill="#E2FFFE" x="145.6" y="0.2" width="38.6" height="12" rx="6"></rect>
                        <rect id="Rectangle" fill="#E2FFFE" x="186.4" y="0" width="38.6" height="12" rx="6"></rect>
                        <path d="M9.72797852,0.267907715 C6.88397247,2.3009705 5.13482696,3.69673161 4.48054199,4.45519104 C4.48054199,4.45519104 4.48054199,4.45519104 4.48054199,4.45519104 C2.93349328,6.24855898 3.13317446,8.95650172 4.9265424,10.5035504 C5.70521808,11.175275 6.69934956,11.5448183 7.72772189,11.5447632 L13.8175293,11.5447632 C16.9315469,11.5447632 19.455957,9.0203531 19.455957,5.90633545 L19.455957,5.13189697 C19.455957,2.44558988 17.2782749,0.267907715 14.5919678,0.267907715 L9.72797852,0.267907715 Z" id="Path-9" fill="#E2FFFE"></path>
                        <path d="M236.927979,0.6 C234.083972,2.63306279 232.334827,4.0288239 231.680542,4.78728333 C231.680542,4.78728333 231.680542,4.78728333 231.680542,4.78728333 C230.133493,6.58065126 230.333174,9.288594 232.126542,10.8356427 C232.905218,11.5073672 233.89935,11.8769105 234.927722,11.8768555 L241.017529,11.8768555 C244.131547,11.8768555 246.655957,9.35244539 246.655957,6.23842773 L246.655957,5.46398926 C246.655957,2.77768217 244.478275,0.6 241.791968,0.6 L236.927979,0.6 Z" id="Path-9" fill="#E2FFFE" transform="translate(236.927979, 6.238428) scale(-1, 1) translate(-236.927979, -6.238428) "></path>
                    </g>
                </g>
            </g>
        </g>
    </g>
</svg>