<?xml version="1.0" encoding="UTF-8"?>
<svg width="113px" height="327px" viewBox="0 0 113 327" version="1.1" xmlns="http://www.w3.org/2000/svg" xmlns:xlink="http://www.w3.org/1999/xlink">
    <title>Taipei</title>
    <g id="Page-1" stroke="none" stroke-width="1" fill="none" fill-rule="evenodd">
        <g id="Desktop-HD" transform="translate(-162.000000, -185.000000)">
            <g id="Taipei" transform="translate(162.000000, 185.000000)">
                <polygon id="Path-10" fill="#40D3FF" points="25 43 37.0683047 99.2558637 75.9105825 99.2558637 89 43"></polygon>
                <polygon id="Path-10" fill="#92E6FF" points="19 77 33.1425446 133.255864 78.6608389 133.255864 94 77"></polygon>
                <polygon id="Path-10" fill="#40D3FF" points="0.217041016 270.428345 21.3615723 326.684208 89.4160156 326.684208 112.349609 270.428345"></polygon>
                <polygon id="Path-10" fill="#3B93AD" points="8 115 26.102457 171.255864 84.3658738 171.255864 104 115"></polygon>
                <polygon id="Path-10" fill="#5EB2CA" points="9.9475983e-14 158 21.1445312 214.255864 89.1989746 214.255864 112.132568 158"></polygon>
                <polygon id="Path-10" fill="#6AD8F9" points="9.9475983e-14 214 21.1445312 270.255864 89.1989746 270.255864 112.132568 214"></polygon>
                <polygon id="Path-11" fill="#585858" points="77.4534912 43.2302246 58.3601074 -3.55271368e-15 36 43.2302246"></polygon>
            </g>
        </g>
    </g>
</svg>