<?xml version="1.0" encoding="UTF-8"?>
<svg width="300px" height="800px" viewBox="0 0 300 800" version="1.1" xmlns="http://www.w3.org/2000/svg" xmlns:xlink="http://www.w3.org/1999/xlink">
    <title>JetPack1</title>
    <g id="Page-1" stroke="none" stroke-width="1" fill="none" fill-rule="evenodd">
        <g id="Robot-Sprites" transform="translate(-2375.000000, -1091.000000)">
            <g id="JetPack1" transform="translate(2375.000000, 1091.000000)">
                <g id="Group-2" transform="translate(42.000000, 542.000000)">
                    <path d="M0.458513008,0 L30.1843524,168.909822 C30.8544175,172.717304 34.4841864,175.260683 38.291668,174.590618 C40.55236,174.192766 42.4743441,172.711827 43.4353747,170.627257 L77.2902202,97.1927436 C78.9087981,93.6818877 83.0670258,92.1478933 86.5778818,93.7664713 C88.4402382,94.6250565 89.8324243,96.2571246 90.3866787,98.2315467 L99.8370817,131.896748 C100.881945,135.618866 104.746346,137.789211 108.468465,136.744348 C109.114942,136.562871 109.731944,136.289321 110.300508,135.932108 L144.113037,114.688594 C147.386567,112.631922 151.707551,113.61838 153.764223,116.891911 C154.206822,117.59638 154.520293,118.37411 154.689925,119.188601 L161.425978,151.531937 C162.214224,155.316719 165.921395,157.745891 169.706177,156.957646 C172.326799,156.411856 174.4067,154.41932 175.064373,151.824515 L213.545474,0 L213.545474,0 L0.458513008,0 Z" id="Path-2" fill="#F3BD35"></path>
                    <path d="M0.458513008,0 L71.9443804,148.167483 C73.6242928,151.649407 77.8087884,153.110226 81.2907129,151.430314 C83.7108239,150.262691 85.2489624,147.81279 85.2489624,145.125732 L85.2489624,106.496752 C85.2489624,102.630759 88.3829692,99.4967521 92.2489624,99.4967521 C94.7707047,99.4967521 97.0975374,100.853127 98.3401387,103.047467 L122.968923,146.540028 C124.87391,149.904092 129.145321,151.086907 132.509384,149.181919 C133.771558,148.467181 134.78053,147.378003 135.396825,146.064949 L147.65963,119.938299 C149.302238,116.438621 153.470885,114.93317 156.970562,116.575778 C158.018551,117.067663 158.928183,117.811788 159.617996,118.741514 L191.193685,161.299062 C193.49726,164.403808 197.88157,165.053286 200.986316,162.749711 C202.561408,161.581067 203.573981,159.805237 203.777526,157.854541 L218.04389,21.1313848 L218.04389,21.1313848 L220.248842,0 L0.458513008,0 Z" id="Path-2" fill="#F37635"></path>
                </g>
                <rect id="Rectangle" fill="#363636" x="0" y="0" width="300" height="600" rx="150"></rect>
                <rect id="Rectangle" x="0" y="0" width="300" height="800"></rect>
            </g>
        </g>
    </g>
</svg>