<?xml version="1.0" encoding="UTF-8"?>
<svg width="300px" height="800px" viewBox="0 0 300 800" version="1.1" xmlns="http://www.w3.org/2000/svg" xmlns:xlink="http://www.w3.org/1999/xlink">
    <title>JetPack4</title>
    <g id="Page-1" stroke="none" stroke-width="1" fill="none" fill-rule="evenodd">
        <g id="Robot-Sprites" transform="translate(-3398.000000, -1091.000000)">
            <g id="JetPack4" transform="translate(3398.000000, 1091.000000)">
                <path d="M17,500 L77.6434339,644.091102 C79.1431029,647.654373 83.2474263,649.327253 86.8106968,647.827584 C88.3364516,647.185441 89.5852645,646.023359 90.335382,644.54769 L120.02005,586.150522 C121.771886,582.704223 125.985807,581.330589 129.432105,583.082424 C130.997332,583.878066 132.206386,585.232883 132.819501,586.8782 L151.478233,636.949631 C152.828183,640.572274 156.859265,642.414655 160.481908,641.064706 C161.629327,640.637129 162.644512,639.916045 163.426111,638.973444 L189.359622,607.697873 C191.827293,604.721885 196.240251,604.309812 199.216239,606.777483 C199.514144,607.024504 199.791051,607.295805 200.044114,607.588595 L227.087161,638.877089 C229.615184,641.801983 234.035646,642.12371 236.96054,639.595687 C237.929674,638.758052 238.650384,637.670548 239.044172,636.45162 L283.126465,500 L283.126465,500 L17,500 Z" id="Path-2" fill="#F3BD35"></path>
                <path d="M17,500 L79.0868816,586.866765 C81.0084047,589.555199 84.5482945,590.53367 87.5777761,589.213757 L123.583782,573.526323 C125.855066,572.536749 128.480245,572.821469 130.486558,574.274981 L162.767241,597.661337 C165.653329,599.752217 169.649616,599.34093 172.04934,596.706048 L189.906438,577.099068 C192.507566,574.243046 196.930598,574.034023 199.789472,576.632016 L238.397076,611.716567 C241.258168,614.316577 245.685267,614.104927 248.285277,611.243835 C248.978261,610.481264 249.494347,609.575106 249.796691,608.590053 L283.126465,500 L283.126465,500 L17,500 Z" id="Path-2" fill="#F37635"></path>
                <rect id="Rectangle" fill="#363636" x="0" y="0" width="300" height="600" rx="150"></rect>
                <rect id="Rectangle" x="0" y="0" width="300" height="800"></rect>
            </g>
        </g>
    </g>
</svg>