<?xml version="1.0" encoding="UTF-8"?>
<svg width="300px" height="794px" viewBox="0 0 300 794" version="1.1" xmlns="http://www.w3.org/2000/svg" xmlns:xlink="http://www.w3.org/1999/xlink">
    <title>JetPack2</title>
    <g id="Page-1" stroke="none" stroke-width="1" fill="none" fill-rule="evenodd">
        <g id="Robot-Sprites" transform="translate(-2712.000000, -1091.000000)">
            <g id="JetPack2" transform="translate(2712.000000, 1091.000000)">
                <path d="M17,494.8 L76.9814091,629.414708 C78.5548809,632.94601 82.6931173,634.533145 86.2244188,632.959673 C87.5515682,632.368324 88.6618216,631.37866 89.4012086,630.12793 L120.621798,577.315883 C122.589171,573.987919 126.88189,572.884942 130.209854,574.852315 C131.392048,575.551186 132.342554,576.58236 132.943024,577.817447 L147.163624,607.06733 C148.763806,610.358692 152.629246,611.861908 156.032653,610.516373 L188.448144,597.700926 C191.915715,596.330024 195.849255,597.917899 197.393353,601.311891 L205.742548,619.663771 C207.343488,623.182704 211.493966,624.737545 215.0129,623.136605 C216.441043,622.486871 217.609495,621.376176 218.330732,619.982775 L283.126465,494.8 L283.126465,494.8 L17,494.8 Z" id="Path-2" fill="#F3BD35"></path>
                <path d="M17,494.8 L103.652959,677.086564 C105.312734,680.578132 109.488723,682.063094 112.980291,680.403319 C115.205714,679.345427 116.711023,677.195382 116.943719,674.742325 L124.396933,596.171314 C124.762021,592.322599 128.177984,589.49856 132.0267,589.863647 C134.686668,590.115971 136.970991,591.860518 137.914597,594.36026 L161.69506,657.357996 C163.060366,660.974879 167.099228,662.800143 170.716111,661.434838 C172.716278,660.679812 174.261747,659.052128 174.912182,657.015547 L189.897175,610.095957 C191.073351,606.413226 195.012274,604.381261 198.695006,605.557437 C200.327319,606.078759 201.711717,607.180701 202.5859,608.654481 L233.650289,661.02574 C235.622571,664.350797 239.916913,665.447439 243.241971,663.475157 C244.902548,662.490174 246.082559,660.863059 246.502917,658.978648 L283.126465,494.8 L283.126465,494.8 L17,494.8 Z" id="Path-2" fill="#F37635"></path>
                <rect id="Rectangle" fill="#363636" x="0" y="0" width="300" height="594.795539" rx="150"></rect>
                <rect id="Rectangle" x="0" y="0" width="300" height="793.060719"></rect>
            </g>
        </g>
    </g>
</svg>