<?xml version="1.0" encoding="UTF-8"?>
<svg width="300px" height="800px" viewBox="0 0 300 800" version="1.1" xmlns="http://www.w3.org/2000/svg" xmlns:xlink="http://www.w3.org/1999/xlink">
    <title>JetPack3</title>
    <g id="Page-1" stroke="none" stroke-width="1" fill="none" fill-rule="evenodd">
        <g id="Robot-Sprites" transform="translate(-3055.000000, -1095.000000)">
            <g id="JetPack3" transform="translate(3055.000000, 1095.000000)">
                <path d="M17,500 L80.4845681,610.691077 C82.4079461,614.04466 86.6857685,615.20407 90.0393518,613.280692 C90.6963482,612.903886 91.2878388,612.422953 91.7907573,611.856649 L122.230076,577.580889 C124.797181,574.690237 129.221568,574.42795 132.112221,576.995056 C132.245987,577.11385 132.375151,577.237728 132.499426,577.366418 L153.579808,599.195635 C154.898885,600.561569 156.716289,601.333008 158.615169,601.333008 L192.524732,601.333008 C193.902442,601.333008 195.24952,601.739555 196.397209,602.50172 L214.943,614.817723 C218.163531,616.956434 222.508055,616.079445 224.646765,612.858913 C224.786806,612.648036 224.915305,612.429717 225.031695,612.20492 L283.126465,500 L283.126465,500 L17,500 Z" id="Path-2" fill="#F3BD35"></path>
                <path d="M17,500 L93.1492602,643.053932 C94.9658358,646.46655 99.2049342,647.760397 102.617551,645.943821 C104.259229,645.069938 105.485667,643.578682 106.026186,641.799184 L121.9968,589.220642 C123.120397,585.521529 127.029975,583.433662 130.729088,584.557259 C132.613134,585.129533 134.16903,586.468851 135.015243,588.246785 L158.266319,637.098456 C159.927763,640.589231 164.104461,642.072197 167.595236,640.410754 C168.744994,639.863523 169.723708,639.01304 170.425999,637.950876 L190.119517,608.165869 C192.251739,604.941039 196.594488,604.055305 199.819319,606.187527 C200.124135,606.389068 200.412701,606.614168 200.682373,606.860762 L227.998544,631.839424 C230.851557,634.448298 235.279291,634.250384 237.888165,631.397371 C238.541425,630.682979 239.039409,629.840857 239.350652,628.924214 L283.126465,500 L283.126465,500 L17,500 Z" id="Path-2" fill="#F37635"></path>
                <rect id="Rectangle" fill="#363636" x="0" y="0" width="300" height="600" rx="150"></rect>
                <rect id="Rectangle" x="0" y="0" width="300" height="800"></rect>
            </g>
        </g>
    </g>
</svg>