<?xml version="1.0" encoding="UTF-8"?>
<svg width="300px" height="300px" viewBox="0 0 300 300" version="1.1" xmlns="http://www.w3.org/2000/svg" xmlns:xlink="http://www.w3.org/1999/xlink">
    <title>Grass</title>
    <g id="Page-1" stroke="none" stroke-width="1" fill="none" fill-rule="evenodd">
        <g id="Desktop" transform="translate(-332.000000, -362.000000)">
            <g id="Top-Grass-Group" transform="translate(332.000000, 362.000000)">
                <g id="Grass">
                    <path d="M65,0 L300,0 L300,0 L300,300 L0,300 L0,65 C-4.39629938e-15,29.1014913 29.1014913,6.59444907e-15 65,0 Z" id="Rectangle" fill="#66BB6A"></path>
                    <path d="M0,100 C30.2776063,96.1823114 52.6838563,92.0429885 67.21875,87.5820313 C95.0067438,79.0535166 120.814866,59.2578125 149,59.2578125 C181.313714,59.2578125 208.056441,80.9989502 240.398438,92.2089844 C252.399169,96.3685485 272.266356,98.9655537 300,100 L300,300 L0,300 L0,100 Z" id="Rectangle" fill="#A1887F"></path>
                    <path d="M0,180 C35.976927,170.614783 60.3792707,167.203324 73.2070313,169.765625 C117.26976,178.567003 141.45952,207.25 165,207.25 C184.004578,207.25 206.427346,155.736361 232.492188,150 C242.130052,147.878895 253.842282,168.60826 272.546875,179.628906 C277.604041,182.608562 286.755083,182.73226 300,180 L300,300 L0,300 L0,180 Z" id="Rectangle" fill="#D7CCC8"></path>
                </g>
            </g>
        </g>
    </g>
</svg>