<?xml version="1.0" encoding="UTF-8"?>
<svg width="255px" height="306px" viewBox="0 0 255 306" version="1.1" xmlns="http://www.w3.org/2000/svg" xmlns:xlink="http://www.w3.org/1999/xlink">
    <title>Pearl</title>
    <g id="Page-1" stroke="none" stroke-width="1" fill="none" fill-rule="evenodd">
        <g id="Desktop-HD" transform="translate(-840.000000, -206.000000)">
            <g id="Pearl" transform="translate(840.401123, 206.000000)">
                <path d="M-1.29318778e-12,306 C34.0247172,276.993947 58.1332377,253.922536 72.3255615,236.785767 C80.316716,227.136708 97.1355948,199.831248 107.598877,152.684208 C113.011911,128.293342 119.345244,80.052531 126.598877,7.96177673 C135.528042,80.4800102 142.528042,128.720821 147.598877,152.684208 C156.621144,195.320993 168.102259,219.813283 175.993835,229.342104 C190.538431,246.90423 216.522501,272.456862 253.946045,306 L211.120789,306 C182.026023,263.671448 153.976768,242.481207 126.973022,242.429276 C99.9692771,242.377344 73.2822451,263.462322 46.9119263,305.684208 L-1.29318778e-12,306 Z" id="Path-8" fill="#4E4D4D"></path>
                <circle id="Oval" fill="#FF0000" cx="126.598877" cy="221" r="60"></circle>
                <circle id="Oval" fill="#FF0000" cx="126.598877" cy="100" r="35"></circle>
                <circle id="Oval" fill="#FF0000" cx="127.598877" cy="20" r="20"></circle>
            </g>
        </g>
    </g>
</svg>