<?xml version="1.0" encoding="UTF-8"?>
<svg width="140px" height="247px" viewBox="0 0 140 247" version="1.1" xmlns="http://www.w3.org/2000/svg" xmlns:xlink="http://www.w3.org/1999/xlink">
    <title>Sprite3</title>
    <g id="Page-1" stroke="none" stroke-width="1" fill="none" fill-rule="evenodd">
        <g id="Player-Sprite-Sheets" transform="translate(-642.000000, -129.000000)">
            <g id="Sprite3" transform="translate(642.000000, 129.000000)">
                <g id="Leg-One" transform="translate(37.000000, 192.500000) rotate(20.000000) translate(-37.000000, -192.500000) translate(17.000000, 142.000000)">
                    <path d="M6,0 L40,0 L40,0 L40,94 C40,97.3137085 37.3137085,100 34,100 L6,100 C2.6862915,100 4.05812251e-16,97.3137085 0,94 L0,6 C-4.05812251e-16,2.6862915 2.6862915,6.08718376e-16 6,0 Z" id="Rectangle" fill="#41708C"></path>
                    <path d="M6.06024569,81.9372263 C11.7262601,79.9790754 16.3728448,79 20,79 C23.6271555,79 28.2737408,79.9790756 33.939756,81.9372268 C37.5667484,83.1907003 40,86.6060855 40,90.4435677 L40,100.244141 L40,100.244141 L0,100.244141 L0,90.4435629 C4.56123865e-06,86.6060826 2.43325506,83.190699 6.06024569,81.9372263 Z" id="Rectangle" fill="#D8D8D8"></path>
                </g>
                <g id="Leg-Two" transform="translate(97.000000, 188.000000) rotate(-30.000000) translate(-97.000000, -188.000000) translate(77.000000, 138.000000)">
                    <path d="M0,0 L34,0 C37.3137085,-6.08718376e-16 40,2.6862915 40,6 L40,94 C40,97.3137085 37.3137085,100 34,100 L6,100 C2.6862915,100 4.05812251e-16,97.3137085 0,94 L0,0 L0,0 Z" id="Rectangle" fill="#41708C"></path>
                    <path d="M6.06024569,81.6930856 C11.7262601,79.7349348 16.3728448,78.7558594 20,78.7558594 C23.6271555,78.7558594 28.2737408,79.734935 33.939756,81.6930862 C37.5667484,82.9465597 40,86.3619449 40,90.1994271 L40,100 L40,100 L0,100 L0,90.1994223 C4.56123865e-06,86.361942 2.43325506,82.9465584 6.06024569,81.6930856 Z" id="Rectangle" fill="#D8D8D8"></path>
                </g>
                <path d="M26,50 L106,50 L106,139 C106,145.075132 101.075132,150 95,150 L37,150 C30.9248678,150 26,145.075132 26,139 L26,50 L26,50 Z" id="Rectangle" fill="#FF6464"></path>
                <g id="Arm-One" transform="translate(97.000000, 100.000000) rotate(20.000000) translate(-97.000000, -100.000000) translate(87.000000, 50.000000)">
                    <rect id="Rectangle" fill="#FFFADA" x="1.8189894e-12" y="19" width="20" height="81" rx="4"></rect>
                    <path d="M1.8189894e-12,0 L8,0 C14.627417,-1.21743675e-15 20,5.372583 20,12 L20,38 L20,38 L1.8189894e-12,38 L1.8189894e-12,0 Z" id="Rectangle" fill="#FF6464"></path>
                </g>
                <g id="Arm-Two" transform="translate(29.000000, 101.000000) rotate(-15.000000) translate(-29.000000, -101.000000) translate(19.000000, 51.000000)">
                    <rect id="Rectangle" fill="#FFFADA" transform="translate(10.000000, 59.500000) scale(-1, 1) translate(-10.000000, -59.500000) " x="0" y="19" width="20" height="81" rx="4"></rect>
                    <path d="M0,0 L8,0 C14.627417,-1.21743675e-15 20,5.372583 20,12 L20,38 L20,38 L0,38 L0,0 Z" id="Rectangle" fill="#FF6464" transform="translate(10.000000, 19.000000) scale(-1, 1) translate(-10.000000, -19.000000) "></path>
                </g>
                <g id="Facial-Features" transform="translate(41.000000, 0.000000)">
                    <rect id="Rectangle" fill="#FFFADA" x="0" y="0" width="50" height="50" rx="14"></rect>
                    <path d="M9,-7.10542736e-15 L41,-7.10542736e-15 C45.9705627,-8.01850492e-15 50,4.02943725 50,9 L50,15.1916847 C49.9999992,17.4008232 48.2091386,19.1916839 46,19.1916839 C45.142975,19.1916839 44.3086091,18.9164239 43.619824,18.4064562 C35.8683811,12.6673864 29.6617731,9.79785156 25,9.79785156 C20.3382262,9.79785156 14.131617,12.6673873 6.3801725,18.4064588 C4.60470229,19.7209894 2.09976102,19.3473287 0.785227132,17.5718609 C0.275259798,16.8830764 1.04955215e-16,16.0487111 0,15.1916867 L0,9 C1.16763846e-15,4.02943725 4.02943725,-6.19234979e-15 9,-7.10542736e-15 Z" id="Rectangle" fill="#5A5656"></path>
                    <g id="Eyes" transform="translate(10.000000, 19.000000)">
                        <g id="EyeLeft">
                            <path d="M1,0.697509766 C3.64908854,0.232503255 5.58723958,-1.39888101e-14 6.81445312,-1.39888101e-14 C8.04166667,-1.39888101e-14 9.77018229,0.232503255 12,0.697509766 L12,1.69750977 C9.55859375,1.37003581 7.72526042,1.20629883 6.5,1.20629883 C5.27473958,1.20629883 3.44140625,1.37003581 1,1.69750977 L1,0.697509766 Z" id="Rectangle" fill="#504848"></path>
                            <ellipse id="Oval" fill="#FFFFFF" cx="6.25" cy="5.125" rx="6.25" ry="3.125"></ellipse>
                            <circle id="Oval" fill="#584747" cx="8" cy="6" r="2"></circle>
                        </g>
                        <g id="EyeLeft" transform="translate(16.000000, 0.000000)">
                            <path d="M1,0.697509766 C3.64908854,0.232503255 5.58723958,-1.39888101e-14 6.81445312,-1.39888101e-14 C8.04166667,-1.39888101e-14 9.77018229,0.232503255 12,0.697509766 L12,1.69750977 C9.55859375,1.37003581 7.72526042,1.20629883 6.5,1.20629883 C5.27473958,1.20629883 3.44140625,1.37003581 1,1.69750977 L1,0.697509766 Z" id="Rectangle" fill="#504848"></path>
                            <ellipse id="Oval" fill="#FFFFFF" cx="6.25" cy="5.125" rx="6.25" ry="3.125"></ellipse>
                            <circle id="Oval" fill="#584747" cx="8" cy="6" r="2"></circle>
                        </g>
                    </g>
                    <path d="M15.4063198,39.7338113 C19.5455499,42.5779371 22.7434433,44 25,44 C27.2565567,44 30.4544501,42.5779371 34.5936802,39.7338113 C35.2929747,39.2532908 36.2493993,39.4306653 36.7299028,40.1299715 C36.9058264,40.3860037 37,40.6893529 37,41 C37,42.787545 35.7737837,44.341699 34.0352976,44.7576116 C30.2267009,45.6687156 27.2149351,46.1242676 25,46.1242676 C22.7850649,46.1242676 19.7732991,45.6687156 15.9647024,44.7576116 C14.2262163,44.341699 13,42.787545 13,41 C13,40.1515233 13.6878262,39.4636971 14.5363029,39.4636971 C14.84695,39.4636971 15.1502992,39.5578707 15.4063198,39.7338113 Z" id="Rectangle" fill="#F1A6A6"></path>
                    <path d="M24.081543,27.7509766 C18.5245464,33.6875774 15.3865603,36.1245525 24.2451172,36.2998047" id="Path" stroke="#232020"></path>
                </g>
            </g>
        </g>
    </g>
</svg>