<?xml version="1.0" encoding="UTF-8"?>
<svg width="300px" height="300px" viewBox="0 0 300 300" version="1.1" xmlns="http://www.w3.org/2000/svg" xmlns:xlink="http://www.w3.org/1999/xlink">
    <title>Grass</title>
    <g id="Page-1" stroke="none" stroke-width="1" fill="none" fill-rule="evenodd">
        <g id="Desktop" transform="translate(-1232.000000, -362.000000)">
            <g id="Top-Grass-Group" transform="translate(332.000000, 362.000000)">
                <g id="Grass" transform="translate(1050.000000, 150.000000) scale(-1, 1) translate(-1050.000000, -150.000000) translate(900.000000, 0.000000)">
                    <path d="M65,0 L300,0 L300,0 L300,300 L0,300 L0,65 C-4.39629938e-15,29.1014913 29.1014913,6.59444907e-15 65,0 Z" id="Rectangle" fill="#66BB6A"></path>
                    <path d="M0,100 C30.2776063,96.1823114 52.6838563,92.0429885 67.21875,87.5820313 C95.0067438,79.0535166 120.814866,59.2578125 149,59.2578125 C181.313714,59.2578125 212.767378,76.371997 245.109375,87.5820313 C257.110106,91.7415954 275.406981,95.8809183 300,100 L300,300 L0,300 L0,100 Z" id="Rectangle" fill="#A1887F"></path>
                    <path d="M0,180 C19.5810937,173.733272 35.7855207,171.881059 48.6132812,174.443359 C92.6760102,183.244737 133.639207,200.558594 157.179687,200.558594 C166.104876,200.558594 199.954924,192.963894 237.414063,180 C247.891293,176.37403 268.753273,176.37403 300,180 L300,300 L234.650391,300 L0,300 L0,180 Z" id="Rectangle" fill="#D7CCC8"></path>
                </g>
            </g>
        </g>
    </g>
</svg>