<?xml version="1.0" encoding="UTF-8"?>
<svg width="500px" height="552px" viewBox="0 0 500 552" version="1.1" xmlns="http://www.w3.org/2000/svg" xmlns:xlink="http://www.w3.org/1999/xlink">
    <title>Sammy1</title>
    <g id="Page-1" stroke="none" stroke-width="1" fill="none" fill-rule="evenodd">
        <g id="Robot-Sprites" transform="translate(-1990.000000, -2137.000000)">
            <g id="Sammy1" transform="translate(1990.000000, 2137.000000)">
                <circle id="Oval" fill="#445387" cx="250" cy="100" r="100"></circle>
                <ellipse id="Oval" fill="#DECDB1" cx="273.5" cy="101.5" rx="76.5" ry="47.5"></ellipse>
                <ellipse id="Oval" fill="#000000" cx="247" cy="101.5" rx="25" ry="25.5"></ellipse>
                <ellipse id="Oval" fill="#000000" cx="308" cy="101.5" rx="25" ry="25.5"></ellipse>
                <rect id="Rectangle" fill="#445387" x="150" y="163" width="200" height="251" rx="70"></rect>
                <rect id="Rectangle" fill="#445387" x="197" y="399" width="34" height="153"></rect>
                <rect id="Rectangle" fill="#445387" x="274" y="399" width="34" height="153"></rect>
                <rect id="Rectangle" fill="#445387" transform="translate(347.994966, 237.790214) rotate(-48.000000) translate(-347.994966, -237.790214) " x="330.994966" y="178.790214" width="34" height="118"></rect>
                <rect id="Rectangle" fill="#445387" transform="translate(162.213318, 226.486115) rotate(-118.000000) translate(-162.213318, -226.486115) " x="145.213318" y="167.486115" width="34" height="118"></rect>
                <rect id="Rectangle" fill="#445387" transform="translate(402.000000, 323.000000) rotate(-16.000000) translate(-402.000000, -323.000000) " x="385" y="267" width="34" height="112"></rect>
                <rect id="Rectangle" fill="#445387" transform="translate(130.000000, 290.000000) rotate(-16.000000) translate(-130.000000, -290.000000) " x="113" y="234" width="34" height="112"></rect>
                <rect id="Rectangle" x="0" y="0" width="500" height="552"></rect>
            </g>
        </g>
    </g>
</svg>