<?xml version="1.0" encoding="UTF-8"?>
<svg width="429px" height="335px" viewBox="0 0 429 335" version="1.1" xmlns="http://www.w3.org/2000/svg" xmlns:xlink="http://www.w3.org/1999/xlink">
    <title>ufo2</title>
    <g id="Page-1" stroke="none" stroke-width="1" fill="none" fill-rule="evenodd">
        <g id="Robot-Sprites" transform="translate(-1125.000000, -2200.000000)">
            <g id="ufo2" transform="translate(1125.000000, 2205.000000)">
                <g id="Group" transform="translate(13.000000, 0.000000)">
                    <ellipse id="Oval" fill="#D8D8D8" cx="201" cy="193" rx="201" ry="96"></ellipse>
                    <ellipse id="Oval" stroke="#000000" stroke-width="10" fill="#AFDAFF" cx="197.5" cy="115.5" rx="134.5" ry="115.5"></ellipse>
                    <ellipse id="Oval" fill="#4BDF2F" cx="194.5" cy="86" rx="50.5" ry="45"></ellipse>
                    <ellipse id="Oval" fill="#4BDF2F" cx="194.5" cy="169" rx="54.5" ry="58"></ellipse>
                    <ellipse id="Oval" fill="#4BDF2F" cx="235" cy="154" rx="37" ry="10"></ellipse>
                    <ellipse id="Oval" fill="#4BDF2F" transform="translate(275.595762, 123.060241) rotate(-81.000000) translate(-275.595762, -123.060241) " cx="275.595762" cy="123.060241" rx="37" ry="10"></ellipse>
                    <ellipse id="Oval" fill="#4BDF2F" transform="translate(267.000000, 68.500000) rotate(-27.000000) translate(-267.000000, -68.500000) " cx="267" cy="68.5" rx="5" ry="20.5"></ellipse>
                    <ellipse id="Oval" fill="#4BDF2F" transform="translate(292.000000, 73.500000) scale(-1, 1) rotate(-27.000000) translate(-292.000000, -73.500000) " cx="292" cy="73.5" rx="5" ry="20.5"></ellipse>
                    <ellipse id="Oval" fill="#4BDF2F" cx="279" cy="90" rx="13" ry="12"></ellipse>
                    <ellipse id="Oval" fill="#FFFFFF" transform="translate(172.500000, 82.500000) rotate(9.000000) translate(-172.500000, -82.500000) " cx="172.5" cy="82.5" rx="14.5" ry="29.5"></ellipse>
                    <ellipse id="Oval" fill="#FFFFFF" transform="translate(214.500000, 82.500000) rotate(-2.000000) translate(-214.500000, -82.500000) " cx="214.5" cy="82.5" rx="14.5" ry="29.5"></ellipse>
                </g>
                <rect id="Rectangle" x="0" y="0" width="429" height="330"></rect>
            </g>
        </g>
    </g>
</svg>